<?xml version="1.0" encoding="UTF-8" standalone="no"?>
<!-- Created with Inkscape (http://www.inkscape.org/) -->
<svg
   xmlns:dc="http://purl.org/dc/elements/1.1/"
   xmlns:cc="http://creativecommons.org/ns#"
   xmlns:rdf="http://www.w3.org/1999/02/22-rdf-syntax-ns#"
   xmlns:svg="http://www.w3.org/2000/svg"
   xmlns="http://www.w3.org/2000/svg"
   xmlns:sodipodi="http://sodipodi.sourceforge.net/DTD/sodipodi-0.dtd"
   xmlns:inkscape="http://www.inkscape.org/namespaces/inkscape"
   version="1.0"
   width="139.51801"
   height="79.202713"
   id="svg2898"
   sodipodi:version="0.32"
   inkscape:version="0.46"
   sodipodi:docname="redhat-logo.svg"
   inkscape:output_extension="org.inkscape.output.svg.inkscape">
  <metadata
     id="metadata16">
    <rdf:RDF>
      <cc:Work
         rdf:about="">
        <dc:format>image/svg+xml</dc:format>
        <dc:type
           rdf:resource="" />
        <dc:title />
        <dc:date />
        <dc:creator>
          <cc:Agent>
            <dc:title />
          </cc:Agent>
        </dc:creator>
        <dc:rights>
          <cc:Agent>
            <dc:title />
          </cc:Agent>
        </dc:rights>
        <dc:publisher>
          <cc:Agent>
            <dc:title />
          </cc:Agent>
        </dc:publisher>
        <dc:identifier />
        <dc:source />
        <dc:relation />
        <dc:language />
        <dc:subject>
          <rdf:Bag />
        </dc:subject>
        <dc:coverage />
        <dc:description />
        <dc:contributor>
          <cc:Agent>
            <dc:title />
          </cc:Agent>
        </dc:contributor>
        <cc:license
           rdf:resource="" />
      </cc:Work>
    </rdf:RDF>
  </metadata>
  <sodipodi:namedview
     inkscape:window-height="692"
     inkscape:window-width="640"
     inkscape:pageshadow="2"
     inkscape:pageopacity="0.0"
     guidetolerance="10.0"
     gridtolerance="10.0"
     objecttolerance="10.0"
     borderopacity="1.0"
     bordercolor="#666666"
     pagecolor="#ffffff"
     id="base"
     showgrid="false"
     inkscape:zoom="1"
     inkscape:cx="95.81665"
     inkscape:cy="121.7868"
     inkscape:window-x="1091"
     inkscape:window-y="85"
     inkscape:current-layer="svg2898" />
  <defs
     id="defs21">
    <inkscape:perspective
       sodipodi:type="inkscape:persp3d"
       inkscape:vp_x="-50 : 600 : 1"
       inkscape:vp_y="0 : 1000 : 0"
       inkscape:vp_z="700 : 600 : 1"
       inkscape:persp3d-origin="300 : 400 : 1"
       id="perspective18" />
    <inkscape:perspective
       id="perspective2683"
       inkscape:persp3d-origin="107.759 : 40.782333 : 1"
       inkscape:vp_z="215.51801 : 61.1735 : 1"
       inkscape:vp_y="0 : 1000 : 0"
       inkscape:vp_x="0 : 61.1735 : 1"
       sodipodi:type="inkscape:persp3d" />
    <inkscape:perspective
       id="perspective2733"
       inkscape:persp3d-origin="150 : 46.666667 : 1"
       inkscape:vp_z="300 : 70 : 1"
       inkscape:vp_y="0 : 1000 : 0"
       inkscape:vp_x="0 : 70 : 1"
       sodipodi:type="inkscape:persp3d" />
  </defs>
  <g
     id="g2622"
     transform="scale(0.6473613,0.6473613)"
     inkscape:export-filename="/home/rlerch/Source/SVN/publican/trunk/publican-jboss/en-US/images/image_left.png"
     inkscape:export-xdpi="61.361534"
     inkscape:export-ydpi="61.361534">
	<g
   id="g2624">
		<path
   id="path2626"
   d="M 140.253,110.221 L 143.198,116.112 L 140.706,116.112 L 137.843,110.407 L 134.588,110.407 L 134.588,116.112 L 132.467,116.112 L 132.467,101.693 L 138.79,101.693 C 141.304,101.693 143.425,103.032 143.425,105.999 C 143.425,108.305 142.21,109.727 140.253,110.221 z M 138.79,103.732 L 134.588,103.732 L 134.588,108.367 L 138.79,108.367 C 140.232,108.367 141.241,107.626 141.241,106.06 C 141.241,104.556 140.253,103.732 138.79,103.732 z"
   style="fill:#cc0000" />

		<path
   id="path2628"
   d="M 155.164,111.458 L 148.016,111.458 C 148.243,113.538 149.417,114.424 150.736,114.424 C 151.642,114.424 152.363,114.095 153.084,113.559 L 154.341,114.918 C 153.394,115.824 152.261,116.339 150.612,116.339 C 148.079,116.339 145.936,114.3 145.936,110.716 C 145.936,107.049 147.873,105.071 150.673,105.071 C 153.742,105.071 155.226,107.563 155.226,110.489 C 155.226,110.879 155.185,111.231 155.164,111.458 z M 150.529,106.987 C 149.107,106.987 148.242,107.975 148.056,109.706 L 153.082,109.706 C 152.98,108.223 152.28,106.987 150.529,106.987 z"
   style="fill:#cc0000" />

		<path
   id="path2630"
   d="M 164.37,116.112 L 164.37,115.083 C 163.587,115.804 162.681,116.339 161.548,116.339 C 159.22,116.339 157.387,114.651 157.387,110.53 C 157.387,106.822 159.406,105.071 161.651,105.071 C 162.743,105.071 163.773,105.648 164.371,106.307 L 164.371,102.187 L 166.472,101.095 L 166.472,116.112 L 164.37,116.112 z M 164.391,108.45 C 163.917,107.811 162.928,107.028 161.857,107.028 C 160.333,107.028 159.509,108.182 159.509,110.468 C 159.509,113.187 160.374,114.381 161.94,114.381 C 162.949,114.381 163.835,113.701 164.391,113.002 L 164.391,108.45 z"
   style="fill:#cc0000" />

		<path
   id="path2632"
   d="M 184.266,116.112 L 184.266,109.644 L 177.632,109.644 L 177.632,116.112 L 175.47,116.112 L 175.47,101.693 L 177.632,101.693 L 177.632,107.522 L 184.266,107.522 L 184.266,101.693 L 186.428,101.693 L 186.428,116.112 L 184.266,116.112 z"
   style="fill:#cc0000" />

		<path
   id="path2634"
   d="M 196.065,116.112 L 196.065,115.042 C 195.324,115.783 194.273,116.339 193.099,116.339 C 191.348,116.339 189.35,115.351 189.35,112.693 C 189.35,110.283 191.204,109.191 193.655,109.191 C 194.665,109.191 195.468,109.335 196.065,109.603 L 196.065,108.799 C 196.065,107.625 195.344,106.966 194.026,106.966 C 192.914,106.966 192.048,107.172 191.204,107.646 L 190.38,106.04 C 191.41,105.401 192.564,105.071 194.088,105.071 C 196.498,105.071 198.147,106.245 198.147,108.697 L 198.147,116.112 L 196.065,116.112 L 196.065,116.112 z M 196.065,111.499 C 195.489,111.21 194.747,111.024 193.593,111.024 C 192.234,111.024 191.368,111.642 191.368,112.631 C 191.368,113.701 192.048,114.423 193.448,114.423 C 194.582,114.423 195.57,113.723 196.064,113.043 L 196.064,111.499 L 196.065,111.499 z"
   style="fill:#cc0000" />

		<path
   id="path2636"
   d="M 206.363,115.844 C 205.847,116.133 205.127,116.338 204.282,116.338 C 202.778,116.338 201.851,115.412 201.851,113.475 L 201.851,107.234 L 200.306,107.234 L 200.306,105.297 L 201.851,105.297 L 201.851,102.207 L 203.932,101.095 L 203.932,105.297 L 206.61,105.297 L 206.61,107.234 L 203.932,107.234 L 203.932,113.105 C 203.932,114.114 204.261,114.403 205.044,114.403 C 205.6,114.403 206.218,114.197 206.609,113.97 L 206.363,115.844 z"
   style="fill:#cc0000" />

	</g>

	<g
   id="g2638">
		<path
   id="path2640"
   d="M 106.389,51.025 C 109.959,49.238 112.389,45.924 112.389,41.844 C 112.389,32.335 103.775,30.289 95.924,30.423 L 74.738,30.423 L 74.617,30.423 L 62.871,30.423 L 62.871,60.785 C 62.871,65.194 61.334,66.721 58.597,66.721 C 55.656,66.721 54.002,65.067 54.002,62.063 L 54.002,57.858 L 42.832,57.858 L 42.832,59.827 C 42.832,69.981 46.724,76.926 58.784,76.926 C 68.621,76.926 73.822,72.57 74.617,63.968 L 74.617,75.972 L 96.496,75.972 C 106.257,75.972 114.233,72.657 114.233,61.811 C 114.233,56.646 111.242,52.435 106.389,51.025 z M 86.487,39.605 L 95.668,39.605 C 98.161,39.605 100.52,40.697 100.52,44.01 C 100.52,47.263 97.714,48.348 95.668,48.348 L 86.487,48.348 L 86.487,39.605 z M 95.989,66.469 L 86.487,66.469 L 86.487,56 L 95.989,56 C 99.565,56 102.373,57.345 102.373,61.355 C 102.373,65.125 99.756,66.469 95.989,66.469 z"
   style="fill:#cc0000" />

		<path
   id="path2642"
   d="M 90.067,108.399 C 90.067,100.704 83.822,94.452 76.123,94.452 C 68.409,94.452 62.168,100.704 62.168,108.399 C 62.168,116.108 68.409,122.347 76.123,122.347 C 83.822,122.347 90.067,116.108 90.067,108.399 z"
   style="fill:#cc0000" />

		<path
   id="path2644"
   d="M 53.012,103.999 C 53.012,97.181 47.479,91.65 40.655,91.65 C 33.832,91.65 28.303,97.18 28.303,103.999 C 28.303,110.823 33.831,116.356 40.655,116.356 C 47.479,116.356 53.012,110.823 53.012,103.999 z"
   style="fill:#cc0000" />

		<path
   id="path2646"
   d="M 25.097,81.68 C 25.097,75.523 20.113,70.529 13.947,70.529 C 7.779,70.529 2.787,75.523 2.787,81.68 C 2.787,87.854 7.779,92.848 13.947,92.848 C 20.112,92.848 25.097,87.854 25.097,81.68 z"
   style="fill:#cc0000" />

		<path
   id="path2648"
   d="M 19.918,50.615 C 19.918,45.109 15.463,40.659 9.963,40.659 C 4.464,40.659 0,45.108 0,50.615 C 0,56.115 4.464,60.579 9.963,60.579 C 15.463,60.579 19.918,56.114 19.918,50.615 z"
   style="fill:#cc0000" />

		<path
   id="path2650"
   d="M 33.88,22.719 C 33.88,18.1 30.124,14.353 25.508,14.353 C 20.889,14.353 17.139,18.1 17.139,22.719 C 17.139,27.342 20.889,31.086 25.508,31.086 C 30.124,31.086 33.88,27.342 33.88,22.719 z"
   style="fill:#cc0000" />

		<path
   id="path2652"
   d="M 57.78,10.364 C 57.78,6.184 54.395,2.793 50.214,2.793 C 46.034,2.793 42.643,6.184 42.643,10.364 C 42.643,14.551 46.035,17.942 50.214,17.942 C 54.396,17.942 57.78,14.551 57.78,10.364 z"
   style="fill:#cc0000" />

		<path
   id="path2654"
   d="M 82.891,6.377 C 82.891,2.855 80.042,0 76.517,0 C 73.001,0 70.14,2.855 70.14,6.377 C 70.14,9.903 73.001,12.757 76.517,12.757 C 80.042,12.757 82.891,9.903 82.891,6.377 z"
   style="fill:#cc0000" />

	</g>

	<g
   id="g2656">
		<g
   id="g2658">
			<path
   id="path2660"
   d="M 161.415,62.895 C 156.077,61.543 149.709,61.118 147.172,56.742 C 147.293,57.624 147.376,58.522 147.376,59.448 C 147.376,61.433 147.077,63.315 146.536,65.067 L 155.794,65.067 C 155.794,66.721 156.504,67.933 157.582,68.762 C 158.604,69.532 160.076,69.904 161.604,69.904 C 163.701,69.904 166.706,69.02 166.706,66.4 C 166.706,63.855 163.321,63.336 161.415,62.895 z"
   style="fill:none" />

			<path
   id="path2662"
   d="M 129.896,50.193 C 124.851,50.193 123.318,55.244 123.318,59.448 C 123.318,63.665 124.851,68.635 129.896,68.635 C 134.935,68.635 136.529,63.665 136.529,59.448 C 136.528,55.244 134.935,50.193 129.896,50.193 z"
   style="fill:none" />

			<path
   id="path2664"
   d="M 192.015,62.895 C 185.337,61.204 176.724,60.97 176.338,52.616 L 166.718,52.616 C 166.718,51.22 166.206,50.326 165.322,49.75 C 164.419,49.181 163.215,48.923 161.875,48.923 C 160.094,48.923 156.883,49.111 156.883,51.41 C 156.883,54.542 164.156,55.115 169.13,56.197 C 175.779,57.532 177.529,62.315 177.553,65.066 L 186.395,65.066 C 186.395,66.72 187.105,67.932 188.183,68.761 C 189.206,69.531 190.677,69.903 192.204,69.903 C 194.301,69.903 197.307,69.019 197.307,66.399 C 197.306,63.855 193.922,63.336 192.015,62.895 z"
   style="fill:none" />

			<path
   id="path2666"
   d="M 199.729,56.198 C 194.754,55.116 187.148,54.544 187.148,51.411 C 187.148,49.111 190.027,48.924 191.808,48.924 C 193.147,48.924 194.352,49.182 195.255,49.751 C 196.139,50.327 196.651,51.221 196.651,52.617 L 206.67,52.617 C 206.285,44.011 198.69,41.903 191.431,41.903 C 185.383,41.903 177.526,43.785 176.439,50.443 C 174.954,43.662 168.095,41.903 161.496,41.903 C 154.986,41.903 146.035,44.075 146.035,52.049 C 146.035,52.19 146.056,52.31 146.059,52.447 C 143.534,46.151 137.569,41.903 129.896,41.903 C 121.597,41.903 115.392,46.75 113.294,53.899 C 114.898,56.057 115.742,58.872 115.742,61.811 C 115.742,64.224 115.358,66.36 114.631,68.23 C 117.484,73.503 122.974,76.926 129.896,76.926 C 137.25,76.926 143.019,73.054 145.711,67.207 C 147.125,74.716 154.473,76.926 161.668,76.926 C 167.855,76.926 174.688,74.899 176.847,69.154 C 179.082,75.103 185.737,76.926 192.268,76.926 C 199.73,76.926 208.154,73.995 208.154,65.125 C 208.153,62.383 206.423,57.542 199.729,56.198 z M 129.896,68.635 C 124.851,68.635 123.318,63.665 123.318,59.448 C 123.318,55.243 124.851,50.193 129.896,50.193 C 134.935,50.193 136.529,55.244 136.529,59.448 C 136.528,63.666 134.935,68.635 129.896,68.635 z M 161.604,69.904 C 160.076,69.904 158.604,69.532 157.582,68.762 C 156.504,67.933 155.794,66.721 155.794,65.067 L 146.536,65.067 C 147.077,63.315 147.376,61.433 147.376,59.448 C 147.376,58.522 147.293,57.624 147.172,56.742 C 149.709,61.117 156.077,61.543 161.415,62.895 C 163.321,63.336 166.706,63.855 166.706,66.4 C 166.706,69.02 163.701,69.904 161.604,69.904 z M 192.203,69.904 C 190.676,69.904 189.205,69.532 188.182,68.762 C 187.104,67.933 186.394,66.721 186.394,65.067 L 177.552,65.067 C 177.529,62.316 175.779,57.533 169.129,56.198 C 164.155,55.116 156.882,54.544 156.882,51.411 C 156.882,49.111 160.093,48.924 161.874,48.924 C 163.214,48.924 164.418,49.182 165.321,49.751 C 166.206,50.327 166.717,51.221 166.717,52.617 L 176.337,52.617 C 176.723,60.971 185.336,61.204 192.014,62.896 C 193.921,63.337 197.305,63.856 197.305,66.401 C 197.306,69.02 194.3,69.904 192.203,69.904 z"
   style="fill:#60605b" />

		</g>

		<path
   id="path2668"
   d="M 209.127,36.16 L 210.092,36.16 L 211.544,38.546 L 212.485,38.546 L 210.914,36.116 C 211.721,36.014 212.334,35.586 212.334,34.607 C 212.334,33.508 211.696,33.034 210.396,33.034 L 208.294,33.034 L 208.294,38.546 L 209.127,38.546 L 209.127,36.16 z M 209.127,35.446 L 209.127,33.735 L 210.27,33.735 C 210.837,33.735 211.47,33.867 211.47,34.55 C 211.47,35.397 210.837,35.446 210.131,35.446 L 209.127,35.446 z"
   style="fill:#60605b" />

		<path
   id="path2670"
   d="M 215.518,35.8 C 215.518,38.78 213.098,41.192 210.119,41.192 C 207.133,41.192 204.713,38.78 204.713,35.8 C 204.713,32.813 207.133,30.395 210.119,30.395 C 213.098,30.396 215.518,32.813 215.518,35.8 z M 210.118,31.356 C 207.654,31.356 205.666,33.338 205.666,35.8 C 205.666,38.251 207.654,40.232 210.118,40.232 C 212.568,40.232 214.556,38.251 214.556,35.8 C 214.557,33.338 212.568,31.356 210.118,31.356 z"
   style="fill:#60605b" />

	</g>

	<g
   id="g2672">
		<path
   id="path2674"
   d="M 108.227,116.338 C 107.135,116.338 106.105,115.762 105.508,115.103 L 105.508,116.112 L 103.406,116.112 L 103.406,102.187 L 105.508,101.095 L 105.508,106.327 C 106.29,105.605 107.196,105.07 108.33,105.07 C 110.657,105.07 112.49,106.759 112.49,110.879 C 112.49,114.588 110.472,116.338 108.227,116.338 z M 107.938,107.028 C 106.928,107.028 106.042,107.708 105.487,108.409 L 105.487,112.961 C 105.961,113.6 106.949,114.382 108.02,114.382 C 109.544,114.382 110.369,113.23 110.369,110.943 C 110.369,108.223 109.504,107.028 107.938,107.028 z"
   style="fill:#60605b" />

		<path
   id="path2676"
   d="M 118.915,119.923 L 116.67,119.923 L 118.235,115.906 L 114.259,105.297 L 116.587,105.297 L 118.358,110.592 C 118.687,111.539 119.182,113.146 119.305,113.742 C 119.491,113.104 119.944,111.559 120.273,110.633 L 122.107,105.297 L 124.352,105.297 L 118.915,119.923 z"
   style="fill:#60605b" />

	</g>

</g>
</svg>
